<svg width="16" height="16" viewBox="0 0 16 16" fill="none" xmlns="http://www.w3.org/2000/svg">
<path d="M4.83211 8.5C4.83211 8.92593 4.69662 9.28241 4.42565 9.56944C4.16342 9.85648 3.82689 10 3.41605 10C3.00522 10 2.66432 9.85648 2.39335 9.56944C2.13112 9.28241 2 8.92593 2 8.5C2 8.06481 2.13112 7.70833 2.39335 7.43056C2.66432 7.14352 3.00522 7 3.41605 7C3.82689 7 4.16342 7.14352 4.42565 7.43056C4.69662 7.70833 4.83211 8.06481 4.83211 8.5Z" fill="white"/>
<path d="M9.41605 8.5C9.41605 8.92593 9.28057 9.28241 9.00959 9.56944C8.74736 9.85648 8.41083 10 8 10C7.58917 10 7.24827 9.85648 6.97729 9.56944C6.71506 9.28241 6.58395 8.92593 6.58395 8.5C6.58395 8.06481 6.71506 7.70833 6.97729 7.43056C7.24827 7.14352 7.58917 7 8 7C8.41083 7 8.74736 7.14352 9.00959 7.43056C9.28057 7.70833 9.41605 8.06481 9.41605 8.5Z" fill="white"/>
<path d="M14 8.5C14 8.92593 13.8645 9.28241 13.5935 9.56944C13.3313 9.85648 12.9948 10 12.5839 10C12.1731 10 11.8322 9.85648 11.5612 9.56944C11.299 9.28241 11.1679 8.92593 11.1679 8.5C11.1679 8.06481 11.299 7.70833 11.5612 7.43056C11.8322 7.14352 12.1731 7 12.5839 7C12.9948 7 13.3313 7.14352 13.5935 7.43056C13.8645 7.70833 14 8.06481 14 8.5Z" fill="white"/>
</svg>
